HIERARCHY
ROOT Hips
{
  OFFSET 0 0 0
  CHANNELS 6 Xposition Yposition Zposition Zrotation Yrotation Xrotation
  JOINT LeftThigh
  {
    OFFSET 8.759831 0 -6.164326
    CHANNELS 3 Zrotation Yrotation Xrotation
    JOINT LeftLeg
    {
      OFFSET 0 0 -44.123596
      CHANNELS 3 Zrotation Yrotation Xrotation
      JOINT LeftFoot
      {
        OFFSET 0 0 -40.997191
        CHANNELS 3 Zrotation Yrotation Xrotation
        End Site
        {
          OFFSET 0 -13.883989 -5.217556
        }
      }
    }
  }
  JOINT RightThigh
  {
    OFFSET -8.759831 0 -6.164326
    CHANNELS 3 Zrotation Yrotation Xrotation
    JOINT RightLeg
    {
      OFFSET 0 0 -44.123596
      CHANNELS 3 Zrotation Yrotation Xrotation
      JOINT RightFoot
      {
        OFFSET 0 0 -40.997191
        CHANNELS 3 Zrotation Yrotation Xrotation
        End Site
        {
          OFFSET 0 -13.883989 -5.217556
        }
      }
    }
  }
  JOINT SpineLow
  {
    OFFSET 0 0 4.91573
    CHANNELS 3 Zrotation Yrotation Xrotation
    JOINT SpineMid
    {
      OFFSET 0 0 13.436657
      CHANNELS 3 Zrotation Yrotation Xrotation
      JOINT Chest
      {
        OFFSET 0 0 13.436657
        CHANNELS 3 Zrotation Yrotation Xrotation
        JOINT LeftShoulder
        {
          OFFSET 7.865169 1.474719 9.831461
          CHANNELS 3 Zrotation Yrotation Xrotation
          JOINT LeftArm
          {
            OFFSET 9.536517 0 4.424157
            CHANNELS 3 Zrotation Yrotation Xrotation
            JOINT LeftForearm
            {
              OFFSET 0 0 26.845787
              CHANNELS 3 Zrotation Yrotation Xrotation
              JOINT LeftHand
              {
                OFFSET 0 0 26.247051
                CHANNELS 3 Zrotation Yrotation Xrotation
                End Site
                {
                  OFFSET 0 0 8.75
                }
              }
            }
          }
        }
        JOINT RightShoulder
        {
          OFFSET -7.865169 1.474719 9.831461
          CHANNELS 3 Zrotation Yrotation Xrotation
          JOINT RightArm
          {
            OFFSET -9.536517 0 4.424157
            CHANNELS 3 Zrotation Yrotation Xrotation
            JOINT RightForearm
            {
              OFFSET 0 0 -26.845787
              CHANNELS 3 Zrotation Yrotation Xrotation
              JOINT RightHand
              {
                OFFSET 0 0 -26.247051
                CHANNELS 3 Zrotation Yrotation Xrotation
                End Site
                {
                  OFFSET 0 0 -8.75
                }
              }
            }
          }
        }
        JOINT Neck
        {
          OFFSET 0 0 15.730337
          CHANNELS 3 Zrotation Yrotation Xrotation
          JOINT Head
          {
            OFFSET 0 0 11.797753
            CHANNELS 3 Zrotation Yrotation Xrotation
            End Site
            {
              OFFSET 0 0 14.747191
            }
          }
        }
      }
    }
  }
}
MOTION
Frames: 6
Frame Time: 0.01
0 98.314606 0 -177.375368 -43.582908 81.722354 15.003422 -19.974804 -8.908175 11.635481 -7.391229 38.438303 -18.81679 -10.811548 -7.730089 -3.765724 12.635146 0.071183 11.708874 -9.151499 26.349945 23.351944 5.882094 -5.588714 -3.149717 -0.760185 0.125995 -8.615941 -2.057436 0.442767 -8.615941 -2.057436 0.442767 -19.431145 14.288548 11.406162 62.955145 50.375999 170.906897 9.569923 -37.373576 50.029044 97.154259 -13.497715 22.851995 -3.129167 4.988519 25.074485 53.840456 21.672931 41.063678 14.625177 -29.773141 -106.064214 50.559407 10.94947 -9.791124 8.947424 -3.608109 11.659012 6.780181 -2.537143 8.796466
0 98.314606 0 -177.262859 -43.743035 81.586008 14.804786 -19.976988 -9.108959 11.471585 -7.371001 38.820727 -18.746395 -10.912233 -7.702988 -3.734899 12.610305 0.182321 11.65049 -9.254485 26.413301 23.525842 6.113615 -5.621846 -3.141146 -0.744207 0.144128 -8.59286 -2.01156 0.489904 -8.59286 -2.011559 0.489904 -19.535437 14.149943 11.362613 62.807158 50.454545 170.773754 8.912592 -37.034079 50.411493 96.787979 -13.336383 23.465058 -3.148293 4.83928 24.979672 53.977965 21.706025 41.144952 14.693308 -29.847542 -105.917136 50.848502 10.638695 -10.26756 10.180187 -3.90946 11.458032 7.70877 -2.743302 8.658225
0 98.314606 0 -177.178126 -43.966844 81.463326 14.568974 -19.900109 -9.31939 11.207945 -7.358913 39.236799 -18.632672 -11.037235 -7.675804 -3.74407 12.616109 0.275041 11.542628 -9.353007 26.524142 23.637556 6.311016 -5.628481 -3.149955 -0.730752 0.166015 -8.61742 -1.971929 0.548136 -8.61742 -1.971929 0.548136 -19.567732 14.049086 11.276922 62.590522 50.495632 170.633029 8.139546 -36.652087 50.798953 96.357877 -13.143729 24.111519 -2.970023 4.719036 24.736058 54.136464 21.67871 41.277216 14.823769 -29.907759 -105.76285 51.03477 10.402003 -10.619173 11.378651 -4.133285 11.241807 8.609862 -2.893038 8.508244
0 98.314606 0 -177.126639 -44.229954 81.354139 14.230729 -19.753379 -9.54246 10.933285 -7.352067 39.731965 -18.451891 -11.200504 -7.649523 -3.85128 12.64852 0.380668 11.440589 -9.428318 26.661486 23.766448 6.498806 -5.628402 -3.137799 -0.704224 0.183707 -8.584333 -1.897376 0.592603 -8.584332 -1.897376 0.592603 -19.632977 13.881912 11.195147 62.293136 50.510428 170.4632 7.128241 -36.153245 51.35769 95.857384 -12.885205 24.802286 -2.960581 4.581222 24.650848 54.25528 21.712109 41.314007 14.862308 -29.963826 -105.497468 51.164933 10.146981 -11.064217 12.380476 -4.367145 11.011345 9.363248 -3.054995 8.347166
0 98.314606 0 -177.086114 -44.582999 81.25452 13.648798 -19.559316 -9.77196 10.794658 -7.352983 40.309399 -18.222455 -11.381735 -7.621776 -4.022539 12.699878 0.466284 11.296082 -9.490546 26.843505 23.858379 6.659198 -5.612206 -3.143289 -0.679188 0.20622 -8.59961 -1.826094 0.650928 -8.59961 -1.826094 0.650928 -19.648637 13.724314 11.07174 61.961458 50.483972 170.295317 5.932023 -35.579563 51.973071 95.337649 -12.575949 25.45399 -2.774636 4.451064 24.420499 54.413409 21.686538 41.435983 14.961009 -30.035745 -105.296131 51.14966 9.944983 -11.425544 13.33335 -4.521769 10.756574 10.078209 -3.159638 8.166663
0 98.314606 0 -177.057196 -44.972568 81.20395 12.904618 -19.344568 -10.057107 10.85684 -7.401146 40.964282 -18.033204 -11.564097 -7.589196 -4.263199 12.7489 0.517226 11.179484 -9.535571 27.046765 23.888079 6.802293 -5.593769 -3.129178 -0.648596 0.224321 -8.561057 -1.740447 0.695964 -8.561058 -1.740447 0.695964 -19.675893 13.491832 10.927192 61.592068 50.470891 170.133097 4.527134 -34.879425 52.777333 94.886685 -12.213458 26.035387 -2.737243 4.303773 24.277084 54.616838 21.699651 41.520291 15.006151 -30.125814 -105.084133 51.143836 9.717701 -11.811752 14.10275 -4.663912 10.466445 10.654899 -3.259652 7.958342
